<svg width="65" height="65" viewBox="0 0 65 65" fill="none" xmlns="http://www.w3.org/2000/svg">
<path d="M64.9404 32.8876C64.9404 50.5607 50.6134 64.8876 32.9404 64.8876C15.2673 64.8876 0.940369 50.5607 0.940369 32.8876C0.940369 15.2145 15.2673 0.887604 32.9404 0.887604C50.6134 0.887604 64.9404 15.2145 64.9404 32.8876Z" fill="white"/>
<path d="M32.9525 59.1519C47.4512 59.1519 59.2047 47.3984 59.2047 32.8998C59.2047 18.4011 47.4512 6.64761 32.9525 6.64761C18.4539 6.64761 6.70038 18.4011 6.70038 32.8998C6.70038 47.3984 18.4539 59.1519 32.9525 59.1519Z" fill="#B3DEE5"/>
<path d="M33.0111 54.789C45.0679 54.789 54.8418 45.0151 54.8418 32.9583C54.8418 20.9015 45.0679 11.1276 33.0111 11.1276C20.9543 11.1276 11.1804 20.9015 11.1804 32.9583C11.1804 45.0151 20.9543 54.789 33.0111 54.789Z" fill="#F6E8CD"/>
<path d="M33.0194 48.939C41.8407 48.939 48.9918 41.7879 48.9918 32.9666C48.9918 24.1453 41.8407 16.9943 33.0194 16.9943C24.1981 16.9943 17.047 24.1453 17.047 32.9666C17.047 41.7879 24.1981 48.939 33.0194 48.939Z" fill="#917766"/>
<path d="M33.0432 43.5466C38.8732 43.5466 43.5993 38.8204 43.5993 32.9904C43.5993 27.1604 38.8732 22.4343 33.0432 22.4343C27.2132 22.4343 22.4871 27.1604 22.4871 32.9904C22.4871 38.8204 27.2132 43.5466 33.0432 43.5466Z" fill="#B2BD92"/>
<path d="M20.1773 57.1128L20.6277 57.3337L21.1886 57.6088C21.6391 57.8297 21.811 58.1421 21.8745 58.3614C21.9591 58.6539 21.9181 58.9702 21.7625 59.2874C21.6069 59.6045 21.3797 59.8352 21.0989 59.9428C20.8843 60.0314 20.5321 60.0868 20.0816 59.8659L19.6035 59.6314L19.0377 60.7852L18.5044 60.5237L20.1773 57.1128ZM20.9027 59.4474C21.0945 59.3704 21.2167 59.1908 21.2844 59.0529C21.3498 58.9196 21.4169 58.713 21.3604 58.5142C21.3087 58.3406 21.1748 58.195 20.9541 58.0869L20.4761 57.8524L19.8402 59.1487L20.3183 59.3832C20.539 59.4914 20.7338 59.5128 20.9027 59.4474Z" fill="black"/>
<path d="M23.2873 61.1085L23.7763 62.7493L23.1466 62.5184L22.6901 60.9822L22.2815 60.8324L21.839 62.039L21.2815 61.8345L22.5893 58.2677L23.0604 58.4405L23.6468 58.6555C24.118 58.8282 24.3215 59.121 24.4058 59.3373C24.5174 59.6127 24.5126 59.9382 24.391 60.2698C24.2711 60.5967 24.0644 60.8481 23.8012 60.9861C23.6794 61.0505 23.5042 61.1117 23.2873 61.1085ZM22.4649 60.3325L22.9647 60.5158C23.1955 60.6004 23.3932 60.5965 23.5495 60.5121C23.7371 60.4172 23.8351 60.2242 23.8863 60.0847C23.9391 59.9405 23.9891 59.7299 23.9074 59.5363C23.8427 59.3707 23.6926 59.2448 23.4618 59.1603L22.9619 58.9769L22.4649 60.3325Z" fill="black"/>
<path d="M26.2413 63.3748C25.9917 63.3182 25.7583 63.2128 25.5551 63.067C25.3519 62.9212 25.1876 62.7423 25.0563 62.534C24.925 62.3258 24.8343 62.1005 24.7904 61.8543C24.7465 61.6081 24.7519 61.3521 24.8085 61.1024C24.8651 60.8528 24.9705 60.6194 25.1173 60.4112C25.2621 60.213 25.441 60.0488 25.6503 59.9125C25.8586 59.7811 26.0828 59.6955 26.329 59.6515C26.5751 59.6076 26.8311 59.613 27.0809 59.6697C27.3305 59.7262 27.5638 59.8316 27.7721 59.9785C27.9702 60.1231 28.1356 60.2971 28.2719 60.5065C28.4021 60.7197 28.4878 60.9439 28.5329 61.1851C28.5757 61.4363 28.5702 61.6923 28.5136 61.942C28.4571 62.1916 28.3517 62.425 28.2059 62.6282C28.0602 62.8314 27.8862 62.9967 27.6779 63.128C27.4646 63.2583 27.2394 63.3489 26.9982 63.3941C26.747 63.4368 26.491 63.4314 26.2413 63.3748ZM26.9495 60.2489C26.61 60.172 26.2599 60.2344 25.9659 60.4198C25.6719 60.6052 25.4646 60.8941 25.3877 61.2337C25.3108 61.5733 25.3732 61.9233 25.5586 62.2174C25.744 62.5114 26.033 62.7186 26.3726 62.7956C26.7121 62.8725 27.0623 62.8101 27.3563 62.6247C27.6502 62.4393 27.8575 62.1503 27.9344 61.8107C28.0113 61.4712 27.9489 61.121 27.7635 60.827C27.5781 60.533 27.2892 60.3258 26.9495 60.2489Z" fill="black"/>
<path d="M29.3931 60.1012L29.8923 60.1514L30.5138 60.2139C31.013 60.264 31.283 60.4971 31.4189 60.6806C31.6001 60.9252 31.6718 61.236 31.6364 61.5876C31.6011 61.939 31.4684 62.2344 31.2426 62.433C31.0723 62.5909 30.7615 62.7654 30.2622 62.7151L29.7324 62.6619L29.6038 63.9405L29.0129 63.8811L29.3931 60.1012ZM30.8862 62.037C31.0392 61.898 31.0912 61.6871 31.1066 61.5342C31.1214 61.3865 31.1124 61.1694 30.9902 61.0028C30.8813 60.8581 30.7051 60.7683 30.4605 60.7437L29.9307 60.6904L29.7862 62.127L30.3161 62.1803C30.5605 62.2048 30.7506 62.1571 30.8862 62.037Z" fill="black"/>
<path d="M34.0558 63.608L34.0496 64.1456L32.4574 64.1272L31.8686 64.1204L31.9126 60.3215L32.5065 60.3285L32.4687 63.5897L34.0558 63.608Z" fill="black"/>
<path d="M36.9788 63.9073L36.5823 63.1265L35.2365 63.2514L34.9905 64.0918L34.3379 64.1524L35.6174 60.0434L37.6262 63.8471L36.9788 63.9073ZM35.4014 62.7013L36.319 62.6162L35.7533 61.5065L35.4014 62.7013Z" fill="black"/>
<path d="M40.5589 59.3516L39.6454 61.4066L40.0696 63.3474L39.4894 63.4742L39.0652 61.5334L37.3727 60.0482L37.998 59.9114L39.2569 61.0199L39.9387 59.4872L40.5589 59.3516Z" fill="black"/>
<path d="M44.3271 62.0579L43.7539 61.3959L42.4781 61.8421L42.4423 62.7171L41.8237 62.9334L42.0732 58.6371L44.941 61.8432L44.3271 62.0579ZM42.5053 61.2685L43.3752 60.9642L42.5583 60.0242L42.5053 61.2685Z" fill="black"/>
<path d="M46.7357 59.5568C46.8609 59.6903 46.9442 59.8548 46.9723 60.034C47.0324 60.4133 46.8561 60.8192 46.516 61.0704C46.4531 61.1171 46.3859 61.1545 46.3165 61.1872C46.1775 61.2528 46.0277 61.2953 45.874 61.3055C45.6149 61.3204 45.3573 61.2665 45.0968 61.1347L45.3654 60.6001C45.5238 60.6839 45.6833 60.7219 45.8302 60.7092C45.9518 60.7027 46.0672 60.6595 46.1582 60.5882C46.3188 60.4728 46.4077 60.2892 46.3838 60.1307C46.3557 59.9514 46.1837 59.8628 46.0427 59.816C45.8222 59.7447 45.4563 59.6173 45.429 59.6076L44.8197 59.4084C44.631 59.3446 44.4775 59.2472 44.3613 59.1209C44.2471 58.9992 44.1704 58.8487 44.1464 58.6901C44.1182 58.5223 44.145 58.3511 44.2197 58.1855C44.2895 58.0336 44.4003 57.8965 44.5399 57.7965C44.6892 57.6808 44.8717 57.6117 45.0668 57.5931C45.2754 57.5795 45.4875 57.6209 45.6982 57.7196L45.4366 58.2565C45.1601 58.1265 44.9795 58.2118 44.891 58.2762C44.7815 58.3562 44.7169 58.483 44.735 58.5934C44.7471 58.6669 44.802 58.7712 45.0111 58.8424L45.8453 59.1223C45.968 59.1662 46.1158 59.2154 46.2226 59.2499C46.4342 59.3142 46.6082 59.4188 46.7357 59.5568Z" fill="black"/>
<path d="M11.1617 14.235L12.8717 14.3201L12.4443 14.837L10.8438 14.7561L10.5665 15.0914L11.5569 15.9103L11.1784 16.3681L8.25055 13.9473L8.57027 13.5606L8.9683 13.0792C9.28803 12.6925 9.63183 12.5981 9.86386 12.5906C10.1608 12.577 10.466 12.69 10.7383 12.915C11.0066 13.1369 11.1749 13.4155 11.2173 13.7097C11.2375 13.846 11.2369 14.0315 11.1617 14.235ZM10.1561 14.7521L10.4954 14.3418C10.652 14.1524 10.7142 13.9647 10.6866 13.789C10.6596 13.5807 10.5102 13.4239 10.3958 13.3293C10.2774 13.2315 10.0953 13.1142 9.8856 13.1268C9.70797 13.1327 9.53922 13.2324 9.38262 13.4218L9.04332 13.8321L10.1561 14.7521Z" fill="black"/>
<path d="M11.0808 11.5224L11.795 12.2419L12.7797 11.2643L13.1584 11.6458L12.1737 12.6234L13.0034 13.459L14.1988 12.2723L14.5776 12.6538L13.3785 13.8442L12.9606 14.259L10.2841 11.5629L10.702 11.1481L11.901 9.95773L12.2761 10.3356L11.0808 11.5224Z" fill="black"/>
<path d="M14.7007 8.38027C15.1445 8.45073 15.5568 8.71076 15.8933 9.13003C16.2297 9.5493 16.3944 10.008 16.3671 10.4566C16.3547 10.7029 16.2847 10.9429 16.1547 11.1654C16.024 11.3951 15.8404 11.6081 15.6008 11.8003L15.0537 12.2394L14.898 12.3644L12.5201 9.40159L12.9833 9.02983L13.2229 8.83756C13.4625 8.64528 13.707 8.50816 13.9627 8.4342C14.2081 8.35544 14.4575 8.33906 14.7007 8.38027ZM15.7737 10.4208C15.7917 10.1241 15.6704 9.80126 15.4301 9.50178C15.1865 9.1983 14.9008 9.01405 14.6072 8.96733C14.2745 8.91267 13.938 9.02514 13.5946 9.30075L13.3551 9.49303L14.9894 11.5295L15.229 11.3372C15.5725 11.0616 15.7519 10.7535 15.7737 10.4208Z" fill="black"/>
<path d="M18.8453 9.49646L18.3419 9.8116L16.3261 6.59147L16.8295 6.27634L18.8453 9.49646Z" fill="black"/>
<path d="M20.5237 6.71265C20.6547 6.81694 20.7612 6.95163 20.8454 7.1098C20.9345 7.27702 20.9777 7.4454 20.9776 7.61948C20.9727 7.78452 20.9265 7.94833 20.8412 8.10399C20.6877 8.37133 20.4168 8.61421 20.0372 8.81635L19.739 8.97519L19.2961 9.21103L17.5104 5.85779L18.0346 5.57864L18.2515 5.46312C18.6222 5.26578 18.9294 5.18919 19.1938 5.2282C19.3386 5.24968 19.4684 5.30819 19.5783 5.3947C19.6788 5.47457 19.764 5.58004 19.8338 5.7111C19.93 5.89186 19.9892 6.14459 19.899 6.46528C19.9725 6.47256 20.0438 6.48676 20.1175 6.50548C20.2699 6.55196 20.4046 6.61951 20.5237 6.71265ZM18.5018 5.93311L18.2849 6.04863L18.8263 7.06544C18.9183 6.9875 19.0211 6.88637 19.1121 6.77409C19.2432 6.61726 19.3333 6.47065 19.3756 6.33213C19.4224 6.19121 19.417 6.07224 19.3592 5.96378C19.2726 5.80109 19.1801 5.76911 19.1112 5.75943C18.9342 5.73191 18.6781 5.83927 18.5018 5.93311ZM20.3718 7.84347C20.4638 7.67849 20.4645 7.5273 20.3754 7.36009C20.2816 7.18383 20.1482 7.07502 19.9705 7.02461C19.8666 6.99293 19.752 6.98442 19.624 6.99457C19.5883 7.03672 19.5552 7.08338 19.5151 7.12793C19.3708 7.30343 19.2096 7.44728 19.0863 7.55352L19.5676 8.45736L19.7845 8.34185C20.0692 8.19023 20.2733 8.01778 20.3718 7.84347Z" fill="black"/>
<path d="M20.8994 4.76819L21.2873 5.70479L22.5693 5.17384L22.775 5.67052L21.4931 6.20148L21.9437 7.28944L23.4999 6.64487L23.7057 7.14155L22.1446 7.78809L21.6007 8.0134L20.147 4.5035L20.691 4.27819L22.2519 3.63165L22.4557 4.12361L20.8994 4.76819Z" fill="black"/>
<path d="M25.2129 5.24041L26.5876 6.26088L25.9452 6.45341L24.6591 5.49722L24.2422 5.62215L24.6111 6.85318L24.0422 7.02366L22.9517 3.38451L23.4323 3.24048L24.0307 3.06118C24.5113 2.91713 24.8497 3.02955 25.0467 3.15221C25.3012 3.30578 25.4924 3.56919 25.5938 3.9076C25.6937 4.2411 25.6789 4.56624 25.5509 4.83446C25.4919 4.959 25.3885 5.11296 25.2129 5.24041ZM24.0894 5.11207L24.5994 4.95922C24.8349 4.88867 24.9908 4.7671 25.0655 4.60577C25.1587 4.41749 25.1215 4.20415 25.0788 4.06192C25.0348 3.91479 24.9485 3.71614 24.7671 3.61016C24.6161 3.51645 24.4204 3.5056 24.1849 3.57614L23.6749 3.72899L24.0894 5.11207Z" fill="black"/>
<path d="M28.5849 5.89547C28.3325 5.93766 28.0766 5.92849 27.8333 5.8705C27.5899 5.8125 27.3703 5.70906 27.1699 5.56604C26.9695 5.42302 26.8003 5.24885 26.6663 5.03762C26.5325 4.8264 26.4406 4.58738 26.3984 4.33488C26.3562 4.08238 26.3654 3.82649 26.4226 3.57817C26.4814 3.33994 26.5848 3.12021 26.727 2.91478C26.8701 2.71439 27.0451 2.55019 27.2563 2.41628C27.4675 2.28237 27.7065 2.19053 27.959 2.14836C28.2115 2.10618 28.4674 2.11534 28.7157 2.17248C28.954 2.23132 29.1729 2.32972 29.3783 2.4719C29.5795 2.61997 29.7437 2.79498 29.8768 3.00116C30.0115 3.21743 30.1033 3.45645 30.1456 3.70895C30.1877 3.96145 30.1785 4.21734 30.1205 4.46061C30.0626 4.7039 29.9641 4.92278 29.8212 5.12316C29.673 5.32439 29.4989 5.49364 29.2928 5.6267C29.0765 5.76146 28.8374 5.85329 28.5849 5.89547ZM28.0568 2.73416C27.7135 2.79152 27.413 2.98186 27.2112 3.26475C27.0093 3.54765 26.9269 3.89362 26.9842 4.23703C27.0416 4.58043 27.232 4.88086 27.5149 5.08277C27.7977 5.28468 28.1437 5.36703 28.4871 5.30967C28.8305 5.25231 29.131 5.06197 29.3328 4.77908C29.5347 4.49618 29.6171 4.1502 29.5598 3.8068C29.5024 3.46341 29.3121 3.16298 29.0291 2.96107C28.7462 2.75916 28.4003 2.67679 28.0568 2.73416Z" fill="black"/>
<path d="M33.19 5.50804L32.8393 4.70565L31.4884 4.7526L31.1943 5.57739L30.5394 5.60015L32.0542 1.57199L33.8398 5.48546L33.19 5.50804ZM31.6849 4.21297L32.6059 4.18096L32.1052 3.04054L31.6849 4.21297Z" fill="black"/>
<path d="M37.732 5.85425L37.136 5.79431L37.3379 3.78715L35.9788 5.4309L34.9691 3.54889L34.7671 5.55604L34.1762 5.4966L34.5739 1.54343L36.0853 4.37129L38.1297 1.90108L37.732 5.85425Z" fill="black"/>
<path d="M39.4983 2.92711L39.2743 3.9158L40.6275 4.22242L40.5088 4.74673L39.1555 4.44011L38.8954 5.5886L40.5381 5.96084L40.4194 6.48515L38.7715 6.11178L38.1973 5.98167L39.0368 2.27655L39.6111 2.40666L41.2589 2.78003L41.1412 3.29935L39.4983 2.92711Z" fill="black"/>
<path d="M42.7909 5.82096L43.323 7.44833L42.6875 7.23408L42.1906 5.71046L41.7782 5.57144L41.3678 6.78923L40.8049 6.59952L42.0184 2.99951L42.494 3.15979L43.0859 3.35931C43.5614 3.51959 43.7725 3.80688 43.8624 4.02091C43.9813 4.29331 43.9851 4.61876 43.8722 4.95354C43.761 5.28346 43.561 5.54022 43.3014 5.68506C43.1814 5.75265 43.0079 5.81846 42.7909 5.82096ZM41.9484 5.06686L42.4529 5.23694C42.6859 5.31545 42.8834 5.3064 43.0374 5.21787C43.2224 5.11811 43.3153 4.92251 43.3628 4.78182C43.4118 4.63626 43.4563 4.42431 43.3695 4.23296C43.3004 4.0692 43.147 3.94724 42.9141 3.86875L42.4096 3.69866L41.9484 5.06686Z" fill="black"/>
<path d="M44.1556 7.84071L43.6086 7.60935L45.0885 4.11041L45.6356 4.34177L44.1556 7.84071Z" fill="black"/>
<path d="M47.6522 8.33036L47.28 9.04857C47.1653 9.05834 47.0485 9.06122 46.9318 9.05266C46.678 9.03063 46.4317 8.96064 46.2045 8.84282C45.9772 8.72501 45.778 8.5641 45.6182 8.37171C45.4584 8.17931 45.3447 7.96469 45.2703 7.73002C45.1958 7.49537 45.165 7.25446 45.1847 7.00515C45.2043 6.75582 45.2743 6.50952 45.3922 6.28225C45.51 6.05496 45.6709 5.85579 45.8656 5.69146C46.0557 5.53622 46.2726 5.41801 46.5073 5.34357C46.742 5.26914 46.9829 5.2383 47.2298 5.2625C47.4815 5.27762 47.7254 5.35217 47.9527 5.46998C48.18 5.58778 48.3815 5.74416 48.5436 5.94345C48.5616 5.96433 48.5817 5.9921 48.5998 6.01297L48.277 6.63572C48.1596 6.3615 47.9522 6.13864 47.6794 5.99726C47.3703 5.83704 47.0181 5.80443 46.6845 5.91408C46.3532 6.01916 46.0797 6.24646 45.9194 6.55557C45.7592 6.86467 45.7312 7.21921 45.8362 7.55049C45.9413 7.88178 46.1686 8.15531 46.4777 8.31554C46.7869 8.47576 47.1414 8.50382 47.4726 8.39873C47.5348 8.37902 47.5924 8.35697 47.6522 8.33036Z" fill="black"/>
<path d="M49.3379 10.8089L49.5248 9.9534L48.4034 9.19877L47.6813 9.69409L47.1376 9.3282L50.7278 6.9552L49.8774 11.1719L49.3379 10.8089ZM48.8791 8.87706L49.6437 9.39157L49.9074 8.17432L48.8791 8.87706Z" fill="black"/>
<path d="M52.1657 13.3926L52.0675 9.84959L50.4706 11.6974L50.0212 11.309L52.6225 8.2991L52.7169 11.8388L54.3105 9.99479L54.7637 10.3865L52.1657 13.3926Z" fill="black"/>
<path d="M54.1885 15.3478L54.5735 14.5613L53.664 13.5614L52.8447 13.8706L52.4037 13.3858L56.4556 11.9356L54.626 15.8287L54.1885 15.3478ZM54.2025 13.3622L54.8227 14.0439L55.3686 12.9244L54.2025 13.3622Z" fill="black"/>
<path d="M41.789 16.4634C41.8351 16.5068 41.8772 16.5482 41.9156 16.5886M41.789 16.4634C41.842 16.5059 41.8833 16.5472 41.9156 16.5886M41.789 16.4634C42.8391 16.4082 41.789 15.4134 42.9497 15.745C43.8322 15.7672 44.2506 15.8009 46.2105 15.5239C46.4397 14.7749 46.7633 14.9498 47.4263 15.5239C47.9715 15.7851 48.137 15.7178 48.3106 15.4134C49.1161 15.2935 49.3349 15.3791 49.3054 15.8003C49.9732 15.7947 50.3108 15.696 50.8529 15.3581C50.8822 16.0314 50.7732 16.2963 50.3003 16.5187C49.773 16.4042 49.5873 16.516 49.5818 17.2372C48.9615 17.588 48.8458 17.9912 49.0291 19.0611C49.5276 19.2341 49.3027 19.7154 48.4211 20.9401C46.8736 22.6534 47.8132 20.6638 46.0998 21.8797C45.1051 23.7588 45.4367 21.3822 44.1213 21.9133M41.9156 16.5886C42.1715 16.8573 42.2621 17.0787 42.2311 17.5135C43.5575 17.7899 43.0049 17.0162 43.9997 17.3477C44.1198 17.7956 44.0997 17.9879 43.8339 18.1767C44.1076 19.1789 44.0841 19.5186 43.7234 19.7242C44.3006 19.9827 44.326 20.1276 43.9997 20.3875C44.3259 20.9218 44.3893 21.1506 44.1103 21.327C44.1583 21.5856 44.1612 21.7744 44.1213 21.9133M41.9156 16.5886C42.2207 16.9788 41.7292 17.3696 42.7285 18.6189C42.4703 20.3072 42.3957 21.0745 42.8944 20.8296C42.9067 21.5046 42.9814 21.8295 43.2259 22.3219C43.7235 22.286 44.0313 22.2266 44.1213 21.9133M34.4384 55.0403C34.2932 54.8837 34.6042 54.4876 34.8805 54.5429C35.3862 54.9438 35.8754 54.5981 35.599 55.2614C35.2674 55.8693 35.2122 55.0403 34.4384 55.0403ZM14.6526 16.1319C14.9462 16.0032 15.3209 16.0453 15.9237 16.1319C16.325 16.5172 16.7239 16.7504 17.5818 17.1819C17.9927 17.3412 18.5765 16.4082 19.1293 16.9055C19.6819 17.403 20.0135 18.3978 20.1793 18.232C20.3452 18.0662 20.5662 17.9557 20.7873 17.9557C21.1189 18.0662 21.8738 19.5365 22.5558 20.0558C22.1735 20.9164 22.4453 22.0455 22.7216 22.3219C22.8322 22.6534 24.2139 24.0351 25.3193 22.5429C25.84 22.1932 26.3518 22.3863 26.8668 22.6534C26.1669 23.5352 25.9812 23.7914 26.2588 24.422C26.656 24.7516 26.9469 24.7881 28.0273 24.8642C28.3763 26.1975 27.8362 25.891 27.751 26.8538C28.2709 27.0815 28.3922 27.2927 28.4695 27.7381C29.3911 27.6121 29.6614 27.5893 29.8512 27.8486C30.7922 28.0496 31.0173 27.8634 31.0671 27.1853C31.7443 27.2455 32.1698 27.1781 32.9461 27.0196C32.1725 28.0697 33.4989 28.346 33.2225 27.0196C33.7362 27.0403 33.9799 27.1472 34.3831 27.4064V27.7381C35.8334 27.7557 36.478 27.7967 37.1466 27.9591C38.6051 29.9446 39.1423 29.9629 40.131 30.1146C41.1119 30.5088 41.4578 31.0413 41.7338 32.27C41.4594 32.7707 41.2416 32.9979 40.7389 33.32C41.3329 33.3512 41.6605 33.3536 42.2311 33.32C42.398 33.0917 42.3334 32.9568 42.1206 32.7122C42.776 32.8556 43.1078 33.067 43.6128 33.7622C44.4071 34.2087 44.7347 34.1339 46.0446 34.2597C46.3148 34.8045 46.5139 35.0382 46.9289 35.365C47.6398 35.2813 47.647 36.0885 47.6474 37.3546C47.1445 37.4163 46.8775 37.4592 46.7631 37.7415C46.6479 38.2162 46.4631 38.4205 45.8236 38.6258C45.7708 40.3634 45.1522 41.0702 44.1655 42.3839H42.7285C42.6286 42.7123 42.5275 42.8567 41.9548 42.7708C41.2322 43.1444 40.9765 43.405 41.181 44.0973C41.0297 44.811 40.81 45.1312 39.8546 45.3685C39.4864 46.3499 39.2707 46.6803 38.8598 46.6396C38.3625 47.2978 37.9124 47.2297 36.9254 46.6396C36.8553 47.5154 37.2171 47.7715 37.1466 48.1871C36.4019 48.3894 36.0259 48.5454 35.5438 49.0162C34.8253 48.0213 34.3279 48.5187 34.6042 49.3477C33.7313 49.3056 33.4155 49.4436 33.5541 50.3426C33.1131 50.2518 32.9554 50.485 33.0015 51.3373C31.675 51.2268 31.5645 51.8348 32.6146 52.4427C32.1725 52.9954 31.0118 53.3822 30.9566 54.1007C30.9012 54.8192 31.1223 55.1509 31.3987 55.593C31.675 56.0351 33.0015 56.5325 33.0015 56.5325L31.3987 56.422C30.9559 56.9271 30.8179 56.6907 30.6802 55.7588C30.6389 55.4333 30.5452 55.2935 30.2933 55.0956C30.1522 55.2224 30.1897 55.4642 30.0722 56.0351C29.3538 54.156 29.2432 55.9246 28.8011 54.0455C28.6964 53.7493 28.6469 53.5823 28.6906 53.2717C28.2315 52.8432 28.211 52.6461 28.6906 52.3875C29.179 51.8714 29.2857 51.5813 28.9117 51.0611C29.7949 51.0266 29.9097 50.6908 29.6853 49.7346C30.1926 49.6686 30.1147 49.5092 29.6853 49.1267C29.7234 48.4184 29.8244 48.0953 30.1276 47.6344C29.8512 46.9712 30.2933 46.0316 31.0671 45.3685C30.8716 44.154 30.9211 43.6247 31.454 43.1024C31.3618 42.3879 31.4565 42.072 31.8961 41.6655L31.9514 39.5654C30.2173 38.0652 29.6171 37.1781 29.1879 35.1992C28.7203 34.6291 28.3954 34.2074 28.0827 33.4859C28.5165 32.6317 28.7683 32.32 28.4695 32.27C28.2423 32.2282 28.7231 31.5472 30.2933 29.5619C30.3166 28.9176 30.2395 28.5946 29.8512 28.125C29.4943 27.9039 29.3502 27.9534 29.2986 28.6776C28.8723 28.6294 28.7087 28.4776 28.4695 28.0697L27.9168 27.9591C26.9569 26.608 26.6591 26.2668 26.1483 25.6932C24.8396 25.6617 24.5711 25.2409 24.1034 24.4773C22.7882 24.5068 22.0601 24.5003 21.1189 23.593C19.8092 23.1552 19.2897 22.608 19.1293 21.7691C18.9922 20.9128 18.6996 20.6265 17.3606 19.1716C17.3202 18.732 17.1862 18.4662 16.7527 18.3978C16.5005 17.8174 16.2557 17.83 16.3106 17.2924C15.6494 16.5642 15.2933 16.9083 15.758 17.3477C15.7788 17.9732 15.9258 18.3525 16.8633 19.1716C17.0214 19.5687 17.1573 20.3811 17.416 20.5532C17.6747 20.7254 17.445 20.9458 17.0291 20.5532C16.598 20.0394 16.4848 20.2732 16.4211 19.5584C15.8446 18.939 15.6949 19.0681 15.3711 18.232C15.2842 17.9339 15.4816 17.6793 15.2605 17.3477C14.7195 17.3499 15.0758 16.6669 14.6526 16.6293C14.5363 16.4178 14.5308 16.3083 14.6526 16.1319ZM27.751 22.2665C27.8702 22.2917 27.9933 22.2708 28.2484 22.2112C28.1769 22.4966 28.2375 22.5983 28.4694 22.7087C29.1681 22.3202 29.4885 22.3147 29.9617 22.5981C30.4409 22.5751 30.6171 22.732 30.7355 23.3719C30.9718 23.3463 31.0458 23.2421 31.5645 23.6483C31.7617 23.7903 31.9492 23.8072 32.4487 23.7035C32.4562 23.9211 32.3855 24.043 32.1171 24.2562C32.1062 24.5008 32.1558 24.6009 32.4487 24.643C33.1243 24.876 33.341 24.8525 33.6094 24.6983C33.5257 24.4205 33.6596 24.3668 34.162 24.422C34.2163 23.9564 34.1354 23.8074 33.6094 23.9246C33.3004 23.6952 33.1195 23.6418 32.7804 23.7035C32.6226 23.2779 32.5138 23.151 32.2277 23.4271C31.512 22.3812 31.0736 22.5604 30.8486 22.6523L30.846 22.6534C30.8523 22.1381 30.5059 21.9915 29.5196 21.8797C29.0581 21.7189 28.7493 21.7179 28.1379 21.8244C27.8206 21.9347 27.7131 22.0231 27.751 22.2665ZM30.1828 24.1456C30.1616 24.0376 30.2259 23.9988 30.5143 23.9799C30.8844 24.0652 30.9743 24.0972 31.0671 24.1456C30.9268 24.4034 30.7953 24.4814 30.1828 24.1456ZM33.4436 22.9298C33.1498 22.9351 33.1505 23.0027 33.2225 23.1509C33.2601 23.311 33.3282 23.3519 33.5541 23.3166C33.6493 23.1626 33.6752 23.0768 33.4436 22.9298ZM31.6197 22.0455C31.8269 22.3726 32.2762 22.615 32.3382 22.6534C32.4769 22.7395 32.6607 22.7501 32.6699 22.5981C32.2628 22.3931 32.0365 22.2739 31.7302 21.8244C31.5668 21.8387 31.4623 21.8389 31.6197 22.0455ZM30.5143 21.2165C30.4788 21.6136 30.5706 21.7283 30.846 21.8244C31.0028 21.6456 31.0483 21.5317 30.9566 21.2717C30.8154 21.1307 30.7121 21.1431 30.5143 21.2165ZM31.2881 21.106C31.2282 21.3503 31.2721 21.4427 31.454 21.5481C31.533 21.4521 31.6115 21.4032 31.7856 21.2717C31.4222 21.1692 31.3999 21.0303 31.2881 21.106ZM30.3486 20.1663C30.2542 20.4473 30.2746 20.5648 30.5143 20.6638C30.728 20.6665 30.7804 20.6212 30.7355 20.4427C30.5378 20.0942 30.4599 20.0693 30.3486 20.1663ZM30.9012 20.1663C30.7881 20.2342 30.8347 20.5456 31.0118 20.6638C31.2993 20.6279 31.3169 20.5501 31.2881 20.3875C31.1845 20.1848 31.103 20.1286 30.9012 20.1663ZM34.8805 24.3668C35.1317 24.2408 35.3135 24.2713 35.6543 24.3668C35.9665 24.3781 36.0111 24.48 36.0412 24.6983C35.2345 24.6742 34.8574 24.6382 34.8805 24.3668ZM36.6491 24.5878C36.4457 24.6487 36.5911 25.2232 36.8702 25.5273C37.0685 25.7198 37.1775 26.4928 37.2018 26.9643C37.3474 27.3161 37.4146 27.1587 37.5334 26.8538C37.5347 26.4821 37.4829 26.2759 37.2571 25.9142C37.3019 25.2534 37.2768 24.947 36.8702 24.8642C36.8755 24.6089 36.832 24.5405 36.6491 24.5878ZM37.7545 27.1853C37.8528 27.0149 37.9468 26.9962 38.1966 27.1301C38.1883 27.3108 38.1667 27.4098 38.0308 27.5722C37.7005 27.5247 37.6033 27.4571 37.7545 27.1853Z" stroke="black" stroke-width="0.221071" stroke-linejoin="round"/>
</svg>
